<svg width="21" height="21" viewBox="0 0 21 21" fill="none" xmlns="http://www.w3.org/2000/svg">
<path d="M10.4896 8.38297C13.79 8.38297 17.0832 8.38297 20.3837 8.38297C20.8718 8.38297 20.9593 8.46005 20.9593 8.92258C20.9593 11.7258 20.9593 14.536 20.9593 17.3392C20.9593 17.7947 21.0175 18.2432 20.9155 18.6987C20.5804 20.1144 19.1815 21.1095 17.6734 20.9904C17.5349 20.9763 17.4038 20.9763 17.2654 20.9763C12.7482 20.9763 8.23099 20.9763 3.72108 20.9763C3.19651 20.9763 2.67193 21.0254 2.15464 20.8712C0.78491 20.4577 -0.118528 19.1613 0.0126165 17.7877C0.0271881 17.6545 0.0271879 17.5284 0.0271879 17.3952C0.0271879 14.571 0.0271879 11.7468 0.0271879 8.92959C0.0271879 8.46706 0.107331 8.38997 0.602765 8.38997C3.89594 8.38297 7.19641 8.38297 10.4896 8.38297Z" fill="#0C8CE9"/>
<path d="M10.4896 6.70799C7.21099 6.70799 3.93238 6.70799 0.653778 6.70799C0.085486 6.70799 0.034485 6.65193 0.0271992 6.09129C0.0126277 5.5797 -0.0310871 5.06812 0.136486 4.56354C0.573633 3.24604 1.90693 2.39106 3.34223 2.49618C3.83038 2.53122 4.32582 2.50319 4.81396 2.51721C4.97425 2.52422 4.98154 2.44713 4.98154 2.32799C4.97425 1.85846 4.97425 1.38192 4.98154 0.91238C4.98882 0.372764 5.33854 0.00134022 5.84126 0.00134022C6.34398 0.00134022 6.71555 0.372763 6.72284 0.905371C6.73013 1.37491 6.73013 1.85145 6.72284 2.32098C6.72284 2.45414 6.73013 2.52422 6.90498 2.51721C9.30201 2.5102 11.699 2.5102 14.0961 2.51721C14.2418 2.51721 14.2782 2.47516 14.2782 2.34201C14.2709 1.84444 14.2636 1.34687 14.2782 0.849306C14.2928 0.400794 14.5988 0.0714184 15.0214 0.0083465C15.4221 -0.0477175 15.8155 0.183548 15.9685 0.554971C16.0195 0.674107 16.0195 0.793244 16.0195 0.91238C16.0195 1.37491 16.0268 1.83743 16.0195 2.29996C16.0122 2.47516 16.0705 2.51721 16.2454 2.51721C16.9084 2.50319 17.5714 2.46115 18.2344 2.5102C19.8883 2.62934 21.1341 4.087 20.9884 5.67081C20.9738 5.87404 20.9738 6.07026 20.9738 6.2735C20.9666 6.58886 20.85 6.70098 20.5294 6.70098C19.9028 6.70098 19.2763 6.70098 18.6497 6.70098C15.9248 6.70799 13.2072 6.70799 10.4896 6.70799Z" fill="#0C8CE9"/>
</svg>
