<svg width="24" height="24" viewBox="0 0 24 24" fill="none" xmlns="http://www.w3.org/2000/svg">
<g clip-path="url(#clip0_103_271)">
<path d="M12 0C15.3131 0 18.3141 1.34346 20.4853 3.51476C22.6566 5.68605 24 8.68704 24 12.0002C24 15.3134 22.6566 18.314 20.4853 20.4852C18.3141 22.6565 15.3131 24 12 24C8.68687 24 5.68594 22.6565 3.51469 20.4852C1.34344 18.314 0 15.3134 0 12.0002C0 8.68704 1.34344 5.68605 3.51469 3.51476C5.68594 1.34346 8.68687 0 12 0ZM11.1019 6.39622C11.1019 5.90074 11.5045 5.49808 12 5.49808C12.4955 5.49808 12.8981 5.90074 12.8981 6.39622V9.32831C12.8981 9.82379 12.4955 10.2265 12 10.2265C11.5045 10.2265 11.1019 9.82379 11.1019 9.32831V6.39622ZM14.5209 8.85486C14.138 8.54314 14.0794 7.97875 14.3906 7.5953C14.7023 7.21233 15.2672 7.15373 15.6502 7.46546C16.3186 8.00734 16.8633 8.69361 17.2345 9.47362C17.5941 10.2288 17.7956 11.074 17.7956 11.9637C17.7956 13.564 17.1464 15.0134 16.0983 16.0616L16.0434 16.1122C14.9977 17.1313 13.5698 17.7589 12 17.7589C10.4034 17.7589 8.95359 17.1092 7.90406 16.0592C6.85359 15.0134 6.20438 13.564 6.20438 11.9637C6.20438 11.0782 6.40547 10.2358 6.76406 9.48065C7.13578 8.6983 7.67953 8.01063 8.34422 7.46968C8.72719 7.15795 9.29203 7.21655 9.60328 7.59952C9.915 7.98297 9.85641 8.54735 9.47344 8.85908C9.01594 9.23174 8.64094 9.70566 8.385 10.2452C8.13891 10.7627 8.00062 11.3463 8.00062 11.9637C8.00062 13.0681 8.44922 14.0679 9.17203 14.7912C9.89297 15.5164 10.8933 15.9627 12 15.9627C13.0856 15.9627 14.0686 15.5323 14.7863 14.8353L14.828 14.7912C15.5508 14.0679 15.9994 13.0681 15.9994 11.9637C15.9994 11.3473 15.8606 10.7641 15.6136 10.2452C15.3573 9.70626 14.984 9.23128 14.5209 8.85486V8.85486ZM19.3477 4.65243C17.4675 2.77271 14.8692 1.60925 12 1.60925C9.13078 1.60925 6.5325 2.77271 4.65234 4.65243C2.77266 6.53263 1.60922 9.13096 1.60922 12.0002C1.60922 14.8695 2.77266 17.4674 4.65234 19.3476C6.5325 21.2273 9.13078 22.3908 12 22.3908C14.8692 22.3908 17.4675 21.2273 19.3477 19.3476C21.2273 17.4674 22.3908 14.8695 22.3908 12.0002C22.3908 9.13096 21.2273 6.53263 19.3477 4.65243V4.65243Z" fill="#0C8CE9"/>
</g>
<defs>
<clipPath id="clip0_103_271">
<rect width="24" height="24" fill="white"/>
</clipPath>
</defs>
</svg>
